# xmcd
#
# Track frame offsets: 
#        225
#        14905
#        27255
#        36478
#        52260
#        63058
#        73693
#        87467
#        97574
#        107852
#        117948
#        135971
#        144865
#        160117
#        172638
#        187464
#
# Disc length: 2624 seconds
#
# Revision: 1
# Processed by: cddbd v1.5.2PL0 Copyright (c) Steve Scherf et al.
# Submitted via: ExactAudioCopyFreeDBPlugin 1.0
#
DISCID=da0a3d10
DTITLE=Various Artist - Jahrtausendhits Country [CD 2)
DYEAR=1900
DGENRE=Country
TTITLE0=Bellamy Brothers - Dancin' Cowboys
TTITLE1=Lynn Anderson - Stand by Your man
TTITLE2=Frankie Laine - Rawhide
TTITLE3=Billie Joe Spears - Blanket on the ground
TTITLE4=Roger Miller - King of the road
TTITLE5=Don Gibson - Oh lonesome me
TTITLE6=Willie Nelson - Home is where You're happy
TTITLE7=Carl Perkins - Daddy sang bass
TTITLE8=Buddy Knox - Devil woman
TTITLE9=Waylon Jennings - White lightning
TTITLE10=Ricky Nelson - Garden Party
TTITLE11=Sandy Posey - Born a woman
TTITLE12=Bellamy Brothers - Redneck girl
TTITLE13=Frankie Laine - High Noon (Do not forsake me)
TTITLE14=Highway Cowboys - Banjo Fever
TTITLE15=Jerry Lee Lewis - Walk right in
EXTD=
EXTT0=
EXTT1=
EXTT2=
EXTT3=
EXTT4=
EXTT5=
EXTT6=
EXTT7=
EXTT8=
EXTT9=
EXTT10=
EXTT11=
EXTT12=
EXTT13=
EXTT14=
EXTT15=
PLAYORDER=
